<?xml version="1.0" ?><!DOCTYPE svg  PUBLIC '-//W3C//DTD SVG 1.1//EN'  'http://www.w3.org/Graphics/SVG/1.1/DTD/svg11.dtd'><svg height="512px" style="enable-background:new 0 0 512 512;" version="1.1" viewBox="0 0 512 512" width="512px" xml:space="preserve" xmlns="http://www.w3.org/2000/svg" xmlns:xlink="http://www.w3.org/1999/xlink"><g id="_x33_1-slideshare"><g><path d="M376,16H136C69.726,16,16,69.726,16,136v240c0,66.274,53.726,120,120,120h240c66.274,0,120-53.726,120-120V136    C496,69.726,442.274,16,376,16z M420.809,270.549C407.992,295.093,381,302.573,355,316.302v53.007    c0,7.459-9.486,50.946-46.252,50.946c-36.77,0-48.748-21.04-48.748-29.759v-49.644c-5-0.604-8-1.676-11-3.386v53.008    c0,8.74-13.35,21.214-31.408,21.214c-18.061,0-52.592-25.551-52.592-42.401v-57.388c0,0-48.66-18.925-59.881-32.651    c-11.221-13.731-17.133-19.346-14.005-27.417c1.359-3.559,8.886,0.739,19.886,6.961V137.293C111,108.412,134.987,85,163.89,85    h188.767C381.582,85,405,108.412,405,137.293v123.303c2-1.499,3.998-2.984,5.291-4.425    C421.488,243.705,432.866,247.434,420.809,270.549z"/><path d="M352.656,106H163.89c-17.345,0-31.89,13.961-31.89,31.293v133.738c7,3.748,13.895,6.901,19.57,8.238    c21.203,4.986,58.16,7.483,73.745,6.874c15.563-0.649,24.321,5.572,33.024,13.663c0,0,0.66,0.84,1.66,2.129v-6.843    c0-7.483,19.813-10.093,31.646-10.093h52.938c3.734,0,22.416-6.209,39.416-13.459V137.293C384,119.961,370.004,106,352.656,106z     M211.648,267.153c-20.468,0-37.062-16.604-37.062-37.097c0-20.487,16.594-37.098,37.062-37.098    c20.469,0,37.059,16.61,37.059,37.098C248.707,250.549,232.117,267.153,211.648,267.153z M309.305,267.153    c-20.471,0-37.063-16.604-37.063-37.097c0-20.487,16.592-37.098,37.063-37.098c20.469,0,37.062,16.61,37.062,37.098    C346.366,250.549,329.773,267.153,309.305,267.153z"/></g></g><g id="Layer_1"/></svg>